<mxfile host="app.diagrams.net" agent="Mozilla/5.0 (Macintosh; Intel Mac OS X 10_15_7) AppleWebKit/537.36 (KHTML, like Gecko) Chrome/133.0.0.0 Safari/537.36" version="26.0.16">
  <diagram name="페이지-1" id="krHICqRukP-YN06mhhNI">
    <mxGraphModel dx="4904" dy="3060" grid="0" gridSize="10" guides="1" tooltips="1" connect="1" arrows="1" fold="1" page="0" pageScale="1" pageWidth="827" pageHeight="1169" math="0" shadow="0">
      <root>
        <mxCell id="0" />
        <mxCell id="1" parent="0" />
        <mxCell id="RcPpFXFLFac400avcxC4-119" value="App.js" style="rounded=1;whiteSpace=wrap;html=1;fontSize=35;labelPosition=center;verticalLabelPosition=top;align=center;verticalAlign=bottom;" vertex="1" parent="1">
          <mxGeometry x="2431" y="-589" width="951" height="1759.25" as="geometry" />
        </mxCell>
        <mxCell id="RcPpFXFLFac400avcxC4-118" value="App.js" style="rounded=1;whiteSpace=wrap;html=1;fontSize=35;labelPosition=center;verticalLabelPosition=top;align=center;verticalAlign=bottom;" vertex="1" parent="1">
          <mxGeometry x="1441" y="-575" width="951" height="1759.25" as="geometry" />
        </mxCell>
        <mxCell id="RcPpFXFLFac400avcxC4-86" value="App.js" style="rounded=1;whiteSpace=wrap;html=1;fontSize=35;labelPosition=center;verticalLabelPosition=top;align=center;verticalAlign=bottom;" vertex="1" parent="1">
          <mxGeometry x="443" y="-541" width="951" height="1759.25" as="geometry" />
        </mxCell>
        <mxCell id="RcPpFXFLFac400avcxC4-47" value="AppFooter.js" style="rounded=1;whiteSpace=wrap;html=1;fontSize=35;arcSize=0;" vertex="1" parent="1">
          <mxGeometry x="1541" y="768" width="773" height="32" as="geometry" />
        </mxCell>
        <mxCell id="RcPpFXFLFac400avcxC4-50" value="MovieSection (SearchResult)" style="rounded=1;whiteSpace=wrap;html=1;fontSize=35;labelPosition=center;verticalLabelPosition=top;align=center;verticalAlign=bottom;" vertex="1" parent="1">
          <mxGeometry x="1528" y="-23" width="761" height="746" as="geometry" />
        </mxCell>
        <mxCell id="RcPpFXFLFac400avcxC4-61" value="MovieSection (EmptyResult)" style="rounded=1;whiteSpace=wrap;html=1;fontSize=35;labelPosition=center;verticalLabelPosition=top;align=center;verticalAlign=bottom;" vertex="1" parent="1">
          <mxGeometry x="2552" y="-35.5" width="742.5" height="413" as="geometry" />
        </mxCell>
        <mxCell id="RcPpFXFLFac400avcxC4-60" value="MovieSection (NowPlayingSection)" style="rounded=1;whiteSpace=wrap;html=1;fontSize=35;labelPosition=center;verticalLabelPosition=top;align=center;verticalAlign=bottom;" vertex="1" parent="1">
          <mxGeometry x="571.5" y="300.75" width="742.5" height="695" as="geometry" />
        </mxCell>
        <mxCell id="RcPpFXFLFac400avcxC4-77" value="MovieSectionTitle.js" style="rounded=1;whiteSpace=wrap;html=1;fontSize=35;" vertex="1" parent="1">
          <mxGeometry x="2594" y="16.5" width="422" height="32" as="geometry" />
        </mxCell>
        <mxCell id="RcPpFXFLFac400avcxC4-78" value="EmptyResultBox.js" style="rounded=1;whiteSpace=wrap;html=1;fontSize=35;fillColor=#ffe6cc;strokeColor=#d79b00;" vertex="1" parent="1">
          <mxGeometry x="2594" y="73.5" width="654" height="249" as="geometry" />
        </mxCell>
        <mxCell id="RcPpFXFLFac400avcxC4-80" value="" style="group" vertex="1" connectable="0" parent="1">
          <mxGeometry x="2581" y="-346" width="654" height="169" as="geometry" />
        </mxCell>
        <mxCell id="RcPpFXFLFac400avcxC4-72" value="AppHeader.js" style="rounded=1;whiteSpace=wrap;html=1;fontSize=35;labelPosition=center;verticalLabelPosition=top;align=center;verticalAlign=bottom;fillColor=#fad9d5;strokeColor=#ae4132;" vertex="1" parent="RcPpFXFLFac400avcxC4-80">
          <mxGeometry width="654" height="169" as="geometry" />
        </mxCell>
        <mxCell id="RcPpFXFLFac400avcxC4-73" value="AppIcon.js" style="rounded=1;whiteSpace=wrap;html=1;fontSize=35;" vertex="1" parent="RcPpFXFLFac400avcxC4-80">
          <mxGeometry x="13" y="22.5" width="203" height="32" as="geometry" />
        </mxCell>
        <mxCell id="RcPpFXFLFac400avcxC4-74" value="SearchBox.js" style="rounded=1;whiteSpace=wrap;html=1;fontSize=35;" vertex="1" parent="RcPpFXFLFac400avcxC4-80">
          <mxGeometry x="227.5" y="25.5" width="272" height="32" as="geometry" />
        </mxCell>
        <mxCell id="RcPpFXFLFac400avcxC4-81" value="" style="group" vertex="1" connectable="0" parent="1">
          <mxGeometry x="1589" y="-352" width="654" height="169" as="geometry" />
        </mxCell>
        <mxCell id="RcPpFXFLFac400avcxC4-69" value="AppHeader.js" style="rounded=1;whiteSpace=wrap;html=1;fontSize=35;labelPosition=center;verticalLabelPosition=top;align=center;verticalAlign=bottom;fillColor=#fad9d5;strokeColor=#ae4132;" vertex="1" parent="RcPpFXFLFac400avcxC4-81">
          <mxGeometry width="654" height="169" as="geometry" />
        </mxCell>
        <mxCell id="RcPpFXFLFac400avcxC4-70" value="AppIcon.js" style="rounded=1;whiteSpace=wrap;html=1;fontSize=35;" vertex="1" parent="RcPpFXFLFac400avcxC4-81">
          <mxGeometry x="13" y="22.5" width="203" height="32" as="geometry" />
        </mxCell>
        <mxCell id="RcPpFXFLFac400avcxC4-71" value="SearchBox.js" style="rounded=1;whiteSpace=wrap;html=1;fontSize=35;" vertex="1" parent="RcPpFXFLFac400avcxC4-81">
          <mxGeometry x="227.5" y="25.5" width="272" height="32" as="geometry" />
        </mxCell>
        <mxCell id="RcPpFXFLFac400avcxC4-82" value="" style="group" vertex="1" connectable="0" parent="1">
          <mxGeometry x="555" y="-355.75" width="870" height="1542" as="geometry" />
        </mxCell>
        <mxCell id="RcPpFXFLFac400avcxC4-49" value="AppHeader.js" style="rounded=1;whiteSpace=wrap;html=1;fontSize=35;labelPosition=center;verticalLabelPosition=top;align=center;verticalAlign=bottom;fillColor=#fad9d5;strokeColor=#ae4132;" vertex="1" parent="RcPpFXFLFac400avcxC4-82">
          <mxGeometry width="726" height="169" as="geometry" />
        </mxCell>
        <mxCell id="RcPpFXFLFac400avcxC4-5" value="AppIcon.js" style="rounded=1;whiteSpace=wrap;html=1;fontSize=35;" vertex="1" parent="RcPpFXFLFac400avcxC4-82">
          <mxGeometry x="14.431192660550458" y="22.5" width="225.34862385321102" height="32" as="geometry" />
        </mxCell>
        <mxCell id="RcPpFXFLFac400avcxC4-6" value="SearchBox.js" style="rounded=1;whiteSpace=wrap;html=1;fontSize=35;" vertex="1" parent="RcPpFXFLFac400avcxC4-82">
          <mxGeometry x="252.54587155963304" y="25.5" width="301.9449541284404" height="32" as="geometry" />
        </mxCell>
        <mxCell id="RcPpFXFLFac400avcxC4-83" value="" style="group" vertex="1" connectable="0" parent="1">
          <mxGeometry x="538" y="-102.25" width="761" height="317" as="geometry" />
        </mxCell>
        <mxCell id="RcPpFXFLFac400avcxC4-1" value="Hero.js" style="rounded=1;whiteSpace=wrap;html=1;fontSize=35;labelPosition=center;verticalLabelPosition=top;align=center;verticalAlign=bottom;" vertex="1" parent="RcPpFXFLFac400avcxC4-83">
          <mxGeometry width="761" height="317" as="geometry" />
        </mxCell>
        <mxCell id="RcPpFXFLFac400avcxC4-44" value="Image.js" style="rounded=1;whiteSpace=wrap;html=1;fontSize=35;fillColor=#60a917;fontColor=#ffffff;strokeColor=#2D7600;" vertex="1" parent="RcPpFXFLFac400avcxC4-83">
          <mxGeometry x="12" y="17" width="728" height="276" as="geometry" />
        </mxCell>
        <mxCell id="RcPpFXFLFac400avcxC4-2" value="Button.js" style="rounded=1;whiteSpace=wrap;html=1;fontSize=35;fillColor=#dae8fc;strokeColor=#6c8ebf;" vertex="1" parent="RcPpFXFLFac400avcxC4-83">
          <mxGeometry x="57" y="216" width="140" height="32" as="geometry" />
        </mxCell>
        <mxCell id="RcPpFXFLFac400avcxC4-3" value="Title.js" style="rounded=1;whiteSpace=wrap;html=1;fontSize=35;fillColor=#d5e8d4;strokeColor=#82b366;" vertex="1" parent="RcPpFXFLFac400avcxC4-83">
          <mxGeometry x="54" y="171" width="140" height="32" as="geometry" />
        </mxCell>
        <mxCell id="RcPpFXFLFac400avcxC4-4" value="Score.js" style="rounded=1;whiteSpace=wrap;html=1;fontSize=35;fillColor=#e1d5e7;strokeColor=#9673a6;" vertex="1" parent="RcPpFXFLFac400avcxC4-83">
          <mxGeometry x="54" y="126" width="140" height="32" as="geometry" />
        </mxCell>
        <mxCell id="RcPpFXFLFac400avcxC4-48" value="AppHeader.js" style="rounded=1;whiteSpace=wrap;html=1;fontSize=35;fillColor=#fad9d5;strokeColor=#ae4132;" vertex="1" parent="RcPpFXFLFac400avcxC4-83">
          <mxGeometry x="41" y="40" width="654" height="32" as="geometry" />
        </mxCell>
        <mxCell id="RcPpFXFLFac400avcxC4-84" value="AppFooter.js" style="rounded=1;whiteSpace=wrap;html=1;fontSize=35;arcSize=0;" vertex="1" parent="1">
          <mxGeometry x="2559" y="410.5" width="773" height="32" as="geometry" />
        </mxCell>
        <mxCell id="RcPpFXFLFac400avcxC4-85" value="AppFooter.js" style="rounded=1;whiteSpace=wrap;html=1;fontSize=35;arcSize=0;" vertex="1" parent="1">
          <mxGeometry x="561" y="1104" width="773" height="32" as="geometry" />
        </mxCell>
        <mxCell id="RcPpFXFLFac400avcxC4-116" value="" style="group" vertex="1" connectable="0" parent="1">
          <mxGeometry x="-482" y="191" width="761" height="746" as="geometry" />
        </mxCell>
        <mxCell id="RcPpFXFLFac400avcxC4-107" value="MovieSection (data)" style="rounded=1;whiteSpace=wrap;html=1;fontSize=35;labelPosition=center;verticalLabelPosition=top;align=center;verticalAlign=bottom;" vertex="1" parent="RcPpFXFLFac400avcxC4-116">
          <mxGeometry width="761" height="746" as="geometry" />
        </mxCell>
        <mxCell id="RcPpFXFLFac400avcxC4-108" value="MovieSectionTitle.js" style="rounded=1;whiteSpace=wrap;html=1;fontSize=35;" vertex="1" parent="RcPpFXFLFac400avcxC4-116">
          <mxGeometry x="19" y="46" width="422" height="32" as="geometry" />
        </mxCell>
        <mxCell id="RcPpFXFLFac400avcxC4-109" value="MovieCard.js" style="rounded=1;whiteSpace=wrap;html=1;fontSize=35;fillColor=#ffe6cc;strokeColor=#d79b00;" vertex="1" parent="RcPpFXFLFac400avcxC4-116">
          <mxGeometry x="33" y="106" width="217" height="249" as="geometry" />
        </mxCell>
        <mxCell id="RcPpFXFLFac400avcxC4-110" value="MovieCard.js" style="rounded=1;whiteSpace=wrap;html=1;fontSize=35;fillColor=#ffe6cc;strokeColor=#d79b00;" vertex="1" parent="RcPpFXFLFac400avcxC4-116">
          <mxGeometry x="276" y="106" width="217" height="249" as="geometry" />
        </mxCell>
        <mxCell id="RcPpFXFLFac400avcxC4-111" value="MovieCard.js" style="rounded=1;whiteSpace=wrap;html=1;fontSize=35;fillColor=#ffe6cc;strokeColor=#d79b00;" vertex="1" parent="RcPpFXFLFac400avcxC4-116">
          <mxGeometry x="521" y="106" width="217" height="249" as="geometry" />
        </mxCell>
        <mxCell id="RcPpFXFLFac400avcxC4-112" value="MovieCard.js" style="rounded=1;whiteSpace=wrap;html=1;fontSize=35;fillColor=#ffe6cc;strokeColor=#d79b00;" vertex="1" parent="RcPpFXFLFac400avcxC4-116">
          <mxGeometry x="31" y="376" width="217" height="249" as="geometry" />
        </mxCell>
        <mxCell id="RcPpFXFLFac400avcxC4-113" value="MovieCard.js" style="rounded=1;whiteSpace=wrap;html=1;fontSize=35;fillColor=#ffe6cc;strokeColor=#d79b00;" vertex="1" parent="RcPpFXFLFac400avcxC4-116">
          <mxGeometry x="276" y="376" width="217" height="249" as="geometry" />
        </mxCell>
        <mxCell id="RcPpFXFLFac400avcxC4-114" value="MovieCard.js" style="rounded=1;whiteSpace=wrap;html=1;fontSize=35;fillColor=#ffe6cc;strokeColor=#d79b00;" vertex="1" parent="RcPpFXFLFac400avcxC4-116">
          <mxGeometry x="521" y="376" width="217" height="249" as="geometry" />
        </mxCell>
        <mxCell id="RcPpFXFLFac400avcxC4-115" value="SeeMoreButton.js" style="rounded=1;whiteSpace=wrap;html=1;fontSize=35;fillColor=#dae8fc;strokeColor=#6c8ebf;" vertex="1" parent="RcPpFXFLFac400avcxC4-116">
          <mxGeometry x="61" y="670" width="651" height="32" as="geometry" />
        </mxCell>
        <mxCell id="RcPpFXFLFac400avcxC4-117" value="" style="group" vertex="1" connectable="0" parent="1">
          <mxGeometry x="-314" y="-512" width="355" height="488" as="geometry" />
        </mxCell>
        <mxCell id="RcPpFXFLFac400avcxC4-39" value="MovieCard.js" style="rounded=1;whiteSpace=wrap;html=1;fontSize=35;labelPosition=center;verticalLabelPosition=top;align=center;verticalAlign=bottom;fillColor=#ffe6cc;strokeColor=#d79b00;container=0;" vertex="1" parent="RcPpFXFLFac400avcxC4-117">
          <mxGeometry width="355" height="488" as="geometry" />
        </mxCell>
        <mxCell id="RcPpFXFLFac400avcxC4-40" value="Image.js" style="rounded=1;whiteSpace=wrap;html=1;fontSize=35;fillColor=#60a917;fontColor=#ffffff;strokeColor=#2D7600;container=0;" vertex="1" parent="RcPpFXFLFac400avcxC4-117">
          <mxGeometry x="33" y="23.5" width="283" height="270" as="geometry" />
        </mxCell>
        <mxCell id="RcPpFXFLFac400avcxC4-42" value="Score.js" style="rounded=1;whiteSpace=wrap;html=1;fontSize=35;fillColor=#e1d5e7;strokeColor=#9673a6;container=0;" vertex="1" parent="RcPpFXFLFac400avcxC4-117">
          <mxGeometry x="37.5" y="334" width="280" height="32" as="geometry" />
        </mxCell>
        <mxCell id="RcPpFXFLFac400avcxC4-43" value="Title.js" style="rounded=1;whiteSpace=wrap;html=1;fontSize=35;fillColor=#d5e8d4;strokeColor=#82b366;container=0;" vertex="1" parent="RcPpFXFLFac400avcxC4-117">
          <mxGeometry x="41.5" y="402" width="270" height="32" as="geometry" />
        </mxCell>
        <mxCell id="RcPpFXFLFac400avcxC4-120" value="&lt;b&gt;&lt;font style=&quot;font-size: 50px;&quot;&gt;기본 UI&lt;/font&gt;&lt;/b&gt;" style="rounded=1;whiteSpace=wrap;html=1;fontSize=35;" vertex="1" parent="1">
          <mxGeometry x="511" y="-775" width="845" height="104" as="geometry" />
        </mxCell>
        <mxCell id="RcPpFXFLFac400avcxC4-121" value="&lt;span style=&quot;font-size: 50px;&quot;&gt;&lt;b&gt;검색 시 UI&lt;/b&gt;&lt;/span&gt;" style="rounded=1;whiteSpace=wrap;html=1;fontSize=35;" vertex="1" parent="1">
          <mxGeometry x="1486" y="-781" width="845" height="104" as="geometry" />
        </mxCell>
        <mxCell id="RcPpFXFLFac400avcxC4-122" value="&lt;span style=&quot;font-size: 50px;&quot;&gt;&lt;b&gt;검색 시 UI(검색 결과 없음)&lt;/b&gt;&lt;/span&gt;" style="rounded=1;whiteSpace=wrap;html=1;fontSize=35;" vertex="1" parent="1">
          <mxGeometry x="2461" y="-787" width="845" height="104" as="geometry" />
        </mxCell>
      </root>
    </mxGraphModel>
  </diagram>
</mxfile>
